# xmcd
#
# Track frame offsets:
#	150
#	4498
#	8804
#	13239
#	17328
#	21631
#	26073
#	34552
#	39167
#	43494
#	48374
#	53115
#	57437
#	62921
#	67590
#	72390
#	77198
#	82933
#	88189
#	93490
#	99031
#	101870
#	108870
#	111406
#	116378
#	121175
#	126993
#	134812
#	138496
#	142248
#	149450
#	160555
#	168280
#	177609
#	187864
#	192659
#	198528
#	203172
#	208935
#	216075
#	220246
#	222643
#	227724
#	229996
#	232726
#	235285
#	244098
#	254311
#	258817
#	265557
#	271743
#	278471
#	289393
#	292566
#	296089
#	299645
#	302200
#	305207
#	309322
#	312678
#	314981
#	318004
#	321072
#	324343
#	328093
#
# Disc length: 4434 seconds
#
# Revision: 1
# Processed by: cddbd v1.5.1PL0 Copyright (c) Steve Scherf et al.
# Submitted via: CDex 1.50Beta5
#
DISCID=e1115041
DTITLE=ロス 典子、モーリス・タック - 前置詞が使える
DYEAR=1900
DGENRE=Other
TTITLE0=Part 1 on
TTITLE1=Part 1
TTITLE2=Part 1
TTITLE3=Part 1
TTITLE4=Part 1
TTITLE5=Part 1
TTITLE6=Part 1
TTITLE7=Part 1
TTITLE8=Part 1
TTITLE9=Part 2 意識
TTITLE10=Part 2
TTITLE11=Part 2
TTITLE12=Part 2
TTITLE13=Part 2
TTITLE14=Part 2
TTITLE15=Part 2
TTITLE16=Part 3 比較
TTITLE17=Part 3
TTITLE18=Part 3
TTITLE19=Part 3
TTITLE20=Part 3
TTITLE21=Part 3
TTITLE22=Part 3
TTITLE23=Part 3
TTITLE24=Part 3
TTITLE25=Part 1 in
TTITLE26=Part 1
TTITLE27=Part 1
TTITLE28=Part 1
TTITLE29=Part 1
TTITLE30=Part 1
TTITLE31=Part 2 意識
TTITLE32=Part 2
TTITLE33=Part 2
TTITLE34=Part 2
TTITLE35=Part 2
TTITLE36=Part 3 比較
TTITLE37=Part 3
TTITLE38=Part 3
TTITLE39=Part 3
TTITLE40=Part 3
TTITLE41=Part 3
TTITLE42=Part 3
TTITLE43=Part 3
TTITLE44=Part 3
TTITLE45=Part 1 at
TTITLE46=Part 1
TTITLE47=Part 1
TTITLE48=Part 1
TTITLE49=Part 2 意識
TTITLE50=Part 2
TTITLE51=Part 2
TTITLE52=Part 3 比較
TTITLE53=Part 3
TTITLE54=Part 3
TTITLE55=Part 3
TTITLE56=Part 3
TTITLE57=Part 3
TTITLE58=Part 3
TTITLE59=Part 3
TTITLE60=Part 3
TTITLE61=Part 3
TTITLE62=Part 3
TTITLE63=Part 3
TTITLE64=Part 3
EXTD=
EXTT0=
EXTT1=
EXTT2=
EXTT3=
EXTT4=
EXTT5=
EXTT6=
EXTT7=
EXTT8=
EXTT9=
EXTT10=
EXTT11=
EXTT12=
EXTT13=
EXTT14=
EXTT15=
EXTT16=
EXTT17=
EXTT18=
EXTT19=
EXTT20=
EXTT21=
EXTT22=
EXTT23=
EXTT24=
EXTT25=
EXTT26=
EXTT27=
EXTT28=
EXTT29=
EXTT30=
EXTT31=
EXTT32=
EXTT33=
EXTT34=
EXTT35=
EXTT36=
EXTT37=
EXTT38=
EXTT39=
EXTT40=
EXTT41=
EXTT42=
EXTT43=
EXTT44=
EXTT45=
EXTT46=
EXTT47=
EXTT48=
EXTT49=
EXTT50=
EXTT51=
EXTT52=
EXTT53=
EXTT54=
EXTT55=
EXTT56=
EXTT57=
EXTT58=
EXTT59=
EXTT60=
EXTT61=
EXTT62=
EXTT63=
EXTT64=
PLAYORDER=
